<!DOCTYPE svg PUBLIC "-//W3C//DTD SVG 20010904//EN" "http://www.w3.org/TR/2001/REC-SVG-20010904/DTD/svg10.dtd">
<svg version="1.0" xmlns="http://www.w3.org/2000/svg" width="120px" height="120px" viewBox="0 0 1200 1200" preserveAspectRatio="xMidYMid meet">
<g id="layer101" fill="#147737" stroke="none">
 <path d="M0 1125 l0 -1125 1125 0 1125 0 0 1125 0 1125 -1125 0 -1125 0 0 -1125z"/>
 </g>
<g id="layer102" fill="#239a4e" stroke="none">
 <path d="M0 1125 l0 -1125 1125 0 1125 0 0 1125 0 1125 -1125 0 -1125 0 0 -1125z m1741 -15 c12 -7 19 -21 19 -41 0 -59 -140 -178 -294 -250 -37 -17 -70 -29 -73 -26 -3 3 -12 0 -20 -8 -8 -8 -22 -14 -31 -14 -15 1 -15 2 1 6 9 2 17 8 17 13 0 17 -22 65 -33 73 -8 6 -4 7 10 4 12 -3 23 -2 25 2 2 5 46 30 98 56 70 36 113 67 163 116 58 58 77 74 95 78 2 1 12 -4 23 -9z m195 -58 c-3 -5 -8 -31 -12 -58 -16 -119 -77 -263 -157 -369 -108 -143 -265 -246 -453 -294 -65 -17 -104 -20 -214 -18 -122 3 -144 7 -230 36 -102 35 -208 89 -231 118 -13 17 -13 17 6 1 17 -14 23 -14 38 -3 15 11 25 9 70 -16 99 -55 190 -79 325 -86 224 -13 426 64 580 219 114 115 178 231 210 375 12 59 21 78 31 75 8 -2 18 3 23 12 5 9 11 16 14 16 3 0 3 -4 0 -8z m-619 -289 c-4 -3 -10 -3 -14 0 -3 4 0 7 7 7 7 0 10 -3 7 -7z m-662 -253 c3 -5 4 -10 1 -10 -3 0 -8 5 -11 10 -3 6 -4 10 -1 10 3 0 8 -4 11 -10z m-40 -20 c3 -5 4 -10 1 -10 -3 0 -8 5 -11 10 -3 6 -4 10 -1 10 3 0 8 -4 11 -10z m70 0 c3 -5 4 -10 1 -10 -3 0 -8 5 -11 10 -3 6 -4 10 -1 10 3 0 8 -4 11 -10z"/>
 </g>
<g id="layer103" fill="#1ca64c" stroke="none">
 <path d="M0 1125 l0 -1125 1125 0 1125 0 0 1125 0 1125 -1125 0 -1125 0 0 -1125z m1883 276 c5 -1 5 -5 2 -11 -3 -5 -2 -10 3 -10 5 0 17 -28 25 -63 111 -442 -167 -889 -618 -993 -91 -21 -259 -21 -350 0 -192 44 -375 162 -479 310 -67 95 -70 103 -41 109 14 2 28 0 32 -6 4 -6 1 -7 -7 -2 -21 13 44 -58 141 -156 72 -72 102 -95 180 -133 116 -57 186 -76 309 -83 70 -4 119 -1 180 11 167 34 276 92 401 216 72 72 93 101 136 187 70 140 87 219 80 387 -3 95 -10 146 -25 187 l-20 55 22 -2 c11 -1 25 -3 29 -3z m-301 -78 c10 -9 18 -24 18 -33 0 -21 -67 -100 -83 -97 -7 1 -11 -3 -10 -10 1 -6 -4 -13 -11 -16 -9 -4 -12 0 -10 11 7 26 -12 77 -26 74 -11 -3 -11 0 -1 12 7 9 17 13 22 10 5 -3 9 1 9 9 0 19 38 57 57 57 9 0 25 -7 35 -17z m168 -223 c11 -11 20 -27 20 -36 0 -20 -102 -127 -158 -166 -168 -116 -433 -192 -651 -187 l-96 2 -2 41 c-1 25 -8 45 -20 54 -17 14 -17 14 2 8 28 -10 208 -8 275 3 223 37 393 115 516 237 36 35 72 64 80 64 8 0 23 -9 34 -20z m-953 -277 c-4 -3 -10 -3 -14 0 -3 4 0 7 7 7 7 0 10 -3 7 -7z"/>
 </g>
<g id="layer104" fill="#1ac959" stroke="none">
 <path d="M0 1125 l0 -1125 1125 0 1125 0 0 1125 0 1125 -1125 0 -1125 0 0 -1125z m1738 529 c146 -158 225 -422 192 -639 -29 -192 -102 -339 -234 -470 -161 -159 -350 -237 -576 -237 -214 0 -401 74 -563 221 -136 125 -245 353 -247 514 0 40 3 47 19 47 20 0 22 -5 36 -95 11 -68 52 -183 91 -253 24 -43 70 -100 128 -158 77 -76 107 -98 186 -137 117 -58 187 -77 310 -84 70 -4 119 -1 180 11 167 34 276 92 401 216 72 72 93 101 136 187 69 138 87 219 81 381 -4 104 -10 141 -32 207 -35 102 -92 198 -162 274 -49 53 -53 61 -37 70 10 6 21 11 25 11 3 0 33 -29 66 -66z m-336 -91 c28 -25 22 -49 -24 -99 -40 -43 -156 -110 -203 -117 -11 -1 -25 -6 -31 -10 -7 -4 -16 -1 -22 6 -11 14 -21 88 -11 81 13 -8 146 66 197 110 59 51 67 53 94 29z m183 -243 c27 -30 12 -62 -57 -125 -113 -102 -310 -181 -478 -191 -91 -6 -103 -2 -114 34 -5 16 -3 22 8 22 8 0 19 7 23 15 6 10 34 18 78 24 177 23 326 86 426 181 69 65 86 71 114 40z m165 -220 c11 -11 20 -27 20 -36 0 -20 -102 -127 -158 -166 -181 -125 -440 -195 -687 -185 -196 8 -320 49 -313 104 5 39 29 50 80 35 131 -37 193 -45 323 -39 255 11 473 97 621 243 36 35 72 64 80 64 8 0 23 -9 34 -20z"/>
 </g>
<g id="layer105" fill="#ffffff" stroke="none">
 <path d="M0 1125 l0 -1125 1125 0 1125 0 0 1125 0 1125 -1125 0 -1125 0 0 -1125z m1316 795 c490 -125 750 -641 560 -1112 -188 -465 -774 -647 -1202 -373 -164 105 -296 288 -350 485 -25 91 -25 319 0 410 81 292 304 513 596 589 106 28 289 28 396 1z"/>
 <path d="M1022 1880 c-298 -41 -541 -246 -632 -535 -34 -108 -39 -285 -11 -395 120 -475 618 -719 1059 -519 218 99 377 300 429 542 20 95 12 276 -15 369 -105 352 -467 587 -830 538z m379 -310 c58 -31 -16 -131 -144 -194 -105 -51 -185 -69 -307 -69 -131 -1 -209 22 -224 66 -8 23 -6 31 12 49 l22 22 71 -18 c160 -42 368 7 479 114 44 42 59 47 91 30z m183 -246 c29 -28 19 -59 -38 -115 -106 -104 -256 -173 -446 -204 -250 -42 -513 28 -434 116 20 23 29 22 134 -6 79 -21 280 -16 375 10 108 29 237 99 296 159 56 58 86 68 113 40z m166 -224 c27 -27 25 -41 -12 -87 -96 -119 -266 -215 -477 -270 -119 -31 -353 -43 -465 -23 -142 25 -206 62 -191 110 12 38 41 43 108 21 218 -72 491 -44 733 74 90 43 125 67 183 124 40 39 79 71 87 71 8 0 23 -9 34 -20z"/>
 </g>

</svg>